# xmcd
#
# Track frame offsets:
#	150
#	15673
#	27736
#	41639
#	57580
#	72990
#	87861
#	101960
#	118698
#	134946
#	149854
#
# Disc length: 2203 seconds
#
# Revision: 0
# Processed by: cddbd v1.5.1PL0 Copyright (c) Steve Scherf et al.
# Submitted via: EasyCDDAExtractor 4.6.9.1
#
DISCID=b508990b
DTITLE=Blake Shelton - Blake Shelton's Barn and Grill
DYEAR=2004
DGENRE=Country
TTITLE0=Some Beach
TTITLE1=Nobody But Me
TTITLE2=Good Old Boy, Bad Old Boyfriend
TTITLE3=Love Get's In The Way
TTITLE4=Goodbye Time
TTITLE5=Cotton Pickin' Time
TTITLE6=What's On My Mind
TTITLE7=When Somebody Knows You That Well
TTITLE8=On A Good Day
TTITLE9=The Bartender
TTITLE10=I Drink
EXTD=
EXTT0=
EXTT1=
EXTT2=
EXTT3=
EXTT4=
EXTT5=
EXTT6=
EXTT7=
EXTT8=
EXTT9=
EXTT10=
PLAYORDER=
